<svg
  width="49"
  height="25"
  viewBox="0 0 49 25"
  fill="none"
  xmlns="http://www.w3.org/2000/svg"
>
  <path
    d="M22.1166 0.764648V16.1824L16.9456 13.256V3.71261L22.1166 0.764648Z"
    fill="#006CC4"
  />
  <path
    d="M10.341 24.7295V17.0713L15.4507 14.1035V12.7604H6.96805L0 19.6574V24.7295H10.341Z"
    fill="#0085F4"
  />
  <path
    d="M11.728 17.866L16.9455 14.8727L22.118 17.866V24.7304H11.728V17.866Z"
    fill="#006CC4"
  />
  <path
    d="M23.5767 7.04712L29.2598 10.3077V17.7663L23.5767 20.9487V7.04712Z"
    fill="#0085F4"
  />
  <path
    d="M23.5767 22.624L34.0822 16.6995V24.7295H23.5767V22.624Z"
    fill="#0085F4"
  />
  <path
    d="M37.8882 16.7026L37.8694 24.7295H45.954L37.8882 16.7026Z"
    fill="#006CC4"
  />
  <path
    d="M30.7519 16.9326L33.7357 15.2617H38.4791L48.0518 24.7646L48.0498 19.6503L41.1037 12.7604H30.7507L30.7519 16.9326Z"
    fill="#0885E4"
  />
  <path
    d="M37.8882 16.7026H35.5375V24.7295H37.8682L37.8882 16.7026Z"
    fill="#006CC4"
  />
</svg>
